<svg width="50" height="86" viewBox="0 0 50 86" fill="none" xmlns="http://www.w3.org/2000/svg">
<path d="M0 43.0953C0 29.74 11.868 20.4318 25 18V18C35.3394 16.0853 50 0 50 0V86C50 86 35.2313 69.7296 25 68V68C11.8901 65.7838 0 56.3912 0 43.0953V43.0953Z" fill="#D9D9D9"/>
<path d="M21 55C20.4375 55 19.9375 54.8125 19.5625 54.4375C18.75 53.6875 18.75 52.375 19.5625 51.625L28.125 43L19.5625 34.4375C18.75 33.6875 18.75 32.375 19.5625 31.625C20.3125 30.8125 21.625 30.8125 22.375 31.625L32.375 41.625C33.1875 42.375 33.1875 43.6875 32.375 44.4375L22.375 54.4375C22 54.8125 21.5 55 21 55Z" fill="white"/>
</svg>
