<svg width="40" height="68" viewBox="0 0 40 68" fill="none" xmlns="http://www.w3.org/2000/svg">
<path d="M40 34.0931C40 23.5089 30.4113 16.1382 20 14.2326C11.7285 12.7186 0 0 0 0V68C0 68 11.8149 55.135 20 53.7674C20.1205 53.7473 20.2421 53.7278 20.3648 53.7089C30.7602 52.1085 40 44.611 40 34.0931Z" fill="#D9D9D9"/>
<path d="M22 49C22.5625 49 23.0625 48.8125 23.4375 48.4375C24.25 47.6875 24.25 46.375 23.4375 45.625L14.875 37L23.4375 28.4375C24.25 27.6875 24.25 26.375 23.4375 25.625C22.6875 24.8125 21.375 24.8125 20.625 25.625L10.625 35.625C9.8125 36.375 9.8125 37.6875 10.625 38.4375L20.625 48.4375C21 48.8125 21.5 49 22 49Z" fill="white"/>
</svg>
